<?xml version="1.0" encoding="UTF-8" standalone="no"?>
<!-- Generator: Adobe Illustrator 19.1.0, SVG Export Plug-In . SVG Version: 6.00 Build 0)  -->

<svg
   xmlns:dc="http://purl.org/dc/elements/1.1/"
   xmlns:cc="http://creativecommons.org/ns#"
   xmlns:rdf="http://www.w3.org/1999/02/22-rdf-syntax-ns#"
   xmlns:svg="http://www.w3.org/2000/svg"
   xmlns="http://www.w3.org/2000/svg"
   xmlns:sodipodi="http://sodipodi.sourceforge.net/DTD/sodipodi-0.dtd"
   xmlns:inkscape="http://www.inkscape.org/namespaces/inkscape"
   version="1.1"
   id="Layer_1"
   x="0px"
   y="0px"
   viewBox="0 0 100.00001 100"
   xml:space="preserve"
   inkscape:version="0.91 r13725"
   sodipodi:docname="everware-logo-teal.svg"
   width="100"
   height="100"><metadata
     id="metadata67"><rdf:RDF><cc:Work
         rdf:about=""><dc:format>image/svg+xml</dc:format><dc:type
           rdf:resource="http://purl.org/dc/dcmitype/StillImage" /><dc:title></dc:title></cc:Work></rdf:RDF></metadata><defs
     id="defs65" /><sodipodi:namedview
     pagecolor="#ffffff"
     bordercolor="#666666"
     borderopacity="1"
     objecttolerance="10"
     gridtolerance="10"
     guidetolerance="10"
     inkscape:pageopacity="0"
     inkscape:pageshadow="2"
     inkscape:window-width="664"
     inkscape:window-height="480"
     id="namedview63"
     showgrid="false"
     inkscape:zoom="4.3662127"
     inkscape:cx="32.817562"
     inkscape:cy="53.642826"
     inkscape:window-x="243"
     inkscape:window-y="154"
     inkscape:window-maximized="0"
     inkscape:current-layer="g23" /><g
     id="g3"
     transform="translate(-11.909636,-10.264606)"><path
       d="m 63.251,98.086 c -19.896,0 -36.084,-16.188 -36.084,-36.084 0,-19.896 16.188,-36.084 36.084,-36.084 19.896,0 36.084,16.188 36.084,36.084 0,19.896 -16.188,36.084 -36.084,36.084 z m 0,-68.732 C 45.25,29.354 30.604,44 30.604,62.002 c 0,18.001 14.645,32.647 32.647,32.647 18.002,0 32.647,-14.646 32.647,-32.647 C 95.899,44 81.253,29.354 63.251,29.354 Z"
       id="path5"
       inkscape:connector-curvature="0" /></g><g
     id="g7"
     transform="translate(-11.909636,-10.264606)"><rect
       x="37.761002"
       y="48.495998"
       width="6.6900001"
       height="1.572"
       id="rect9" /><rect
       x="40.902"
       y="53.210999"
       style="fill:#008b7a;fill-opacity:1"
       width="14.142"
       height="1.5700001"
       id="rect11" /><rect
       x="57.453999"
       y="53.210999"
       width="17.393999"
       height="1.5700001"
       id="rect13" /><rect
       x="77.045998"
       y="53.210999"
       width="12.572"
       height="1.572"
       id="rect15" /><g
       id="g17"><rect
         x="47.819"
         y="58.075001"
         width="17.914"
         height="1.571"
         id="rect19" /><rect
         x="68.875999"
         y="58.075001"
         width="17.914"
         height="1.571"
         id="rect21" /></g><g
       id="g23"><rect
         x="47.819"
         y="62.487999"
         style="fill:#95a5a5"
         width="14.479"
         height="1.571"
         id="rect25" /><rect
         x="65.082001"
         y="62.487999"
         style="fill:#008b7a;fill-opacity:1"
         width="14.479"
         height="1.571"
         id="rect27" /></g><rect
       x="47.819"
       y="66.901001"
       style="fill:#008b7a;fill-opacity:1"
       width="14.479"
       height="1.571"
       id="rect29" /><g
       id="g31"><rect
         x="53.778999"
         y="71.314003"
         width="14.479"
         height="1.571"
         id="rect33" /><rect
         x="71.075996"
         y="71.314003"
         style="fill:#95a5a5"
         width="12.572"
         height="1.571"
         id="rect35" /></g><g
       id="g37"><rect
         x="59.126999"
         y="75.727997"
         width="14.479"
         height="1.5700001"
         id="rect39" /><rect
         x="76.412003"
         y="75.727997"
         width="7.5539999"
         height="1.5700001"
         id="rect41" /></g><rect
       x="47.285"
       y="48.495998"
       style="fill:#008b7a;fill-opacity:1"
       width="19.073999"
       height="1.572"
       id="rect43" /></g></svg>